<svg xmlns="http://www.w3.org/2000/svg" viewBox="0 0 400 300" width="400" height="300" role="img"><title>Cuaderno Neko Nyan A5</title>
  <defs>
    <pattern id="topos" width="26" height="26" patternUnits="userSpaceOnUse">
      <circle cx="6" cy="6" r="2.6" fill="#FFFFFF" opacity=".75"/>
      <circle cx="19" cy="19" r="2.6" fill="#FFFFFF" opacity=".75"/>
    </pattern>
  </defs>
  <rect width="400" height="300" fill="#F1E8FF"/>
  <rect width="400" height="300" fill="url(#topos)"/>
  <ellipse cx="200.0" cy="160.0" rx="144.0" ry="114.0" fill="#C9A7FF" opacity=".22"/>
  <path d="M48 49 Q48 60 59 60 Q48 60 48 71 Q48 60 37 60 Q48 60 48 49Z" fill="#FFFFFF"/><path d="M352 46 Q352 54 360 54 Q352 54 352 62 Q352 54 344 54 Q352 54 352 46Z" fill="#FFFFFF"/><path d="M360 222 Q360 234 372 234 Q360 234 360 246 Q360 234 348 234 Q360 234 360 222Z" fill="#FFFFFF"/>
  <path d="M40 239 Q40 246 47 246 Q40 246 40 253 Q40 246 33 246 Q40 246 40 239Z" fill="#FFFFFF"/><path d="M332 132.3 C323.6 126 324.3 119.7 328.5 119.7 C330.6 119.7 332 121.5 332 122.8 C332 121.5 333.4 119.7 335.5 119.7 C339.7 119.7 340.4 126 332 132.3Z" fill="#FF9EC4" /><path d="M64 170.4 C56.8 165 57.4 159.6 61 159.6 C62.8 159.6 64 161.1 64 162.3 C64 161.1 65.2 159.6 67 159.6 C70.6 159.6 71.2 165 64 170.4Z" fill="#FF9EC4" />
<path d="M150 70 L162 34 L186 62Z" fill="#C9A7FF" stroke="#5A2340" stroke-width="4" stroke-linejoin="round" stroke-linecap="round"/><path d="M250 70 L238 34 L214 62Z" fill="#C9A7FF" stroke="#5A2340" stroke-width="4" stroke-linejoin="round" stroke-linecap="round"/><path d="M158 64 L164 44 L178 60Z" fill="#FF9EC4"/><path d="M242 64 L236 44 L222 60Z" fill="#FF9EC4"/><rect x="130" y="66" width="150" height="192" rx="16" fill="#FFFFFF" stroke="#5A2340" stroke-width="4" stroke-linejoin="round" stroke-linecap="round"/><rect x="122" y="60" width="150" height="192" rx="16" fill="#C9A7FF" stroke="#5A2340" stroke-width="4" stroke-linejoin="round" stroke-linecap="round"/><rect x="122" y="60" width="26" height="192" rx="12" fill="#AE88F2" stroke="#5A2340" stroke-width="4" stroke-linejoin="round" stroke-linecap="round"/><path d="M236 83 Q236 92 245 92 Q236 92 236 101 Q236 92 227 92 Q236 92 236 83Z" fill="#FFE680"/><path d="M170 215 Q170 222 177 222 Q170 222 170 229 Q170 222 163 222 Q170 222 170 215Z" fill="#FFFFFF"/><path d="M248 211 Q248 216 253 216 Q248 216 248 221 Q248 216 243 216 Q248 216 248 211Z" fill="#FFFFFF"/><path d="M178 92 A10 10 0 1 0 190 108 A8 8 0 1 1 178 92Z" fill="#FFE680"/><ellipse cx="182.2" cy="158" rx="7.5" ry="9.2" fill="#5A2340"/><circle cx="179.8" cy="154.6" r="2.7" fill="#FFFFFF"/><ellipse cx="229.8" cy="158" rx="7.5" ry="9.2" fill="#5A2340"/><circle cx="227.4" cy="154.6" r="2.7" fill="#FFFFFF"/><ellipse cx="170.3" cy="169.9" rx="9.5" ry="5.8" fill="#FF7AA2" opacity=".55"/><ellipse cx="241.7" cy="169.9" rx="9.5" ry="5.8" fill="#FF7AA2" opacity=".55"/><path d="M196.7 169.9 Q201.2 177.6 206 169.9 Q210.8 177.6 215.3 169.9" fill="none" stroke="#5A2340" stroke-width="4.1" stroke-linejoin="round" stroke-linecap="round"/><path d="M170 172 L150 168" stroke="#5A2340" stroke-width="3" stroke-linejoin="round" stroke-linecap="round"/><path d="M170 180 L151 184" stroke="#5A2340" stroke-width="3" stroke-linejoin="round" stroke-linecap="round"/><path d="M242 172 L262 168" stroke="#5A2340" stroke-width="3" stroke-linejoin="round" stroke-linecap="round"/><path d="M242 180 L261 184" stroke="#5A2340" stroke-width="3" stroke-linejoin="round" stroke-linecap="round"/>
</svg>
